<?xml version="1.0" encoding="UTF-8"?>
<svg width="62px" height="62px" viewBox="0 0 62 62" version="1.1" xmlns="http://www.w3.org/2000/svg" xmlns:xlink="http://www.w3.org/1999/xlink">
    <title>Group</title>
    <g id="card_B" stroke="none" stroke-width="1" fill="none" fill-rule="evenodd">
        <g id="card_B-0.3---menu" transform="translate(-949, -310)" fill="#8D8D8D" fill-rule="nonzero">
            <g id="Group-3" transform="translate(172, 216)">
                <g id="card" transform="translate(552, 20)">
                    <g id="Group-2" transform="translate(190, 74)">
                        <g id="Group" transform="translate(35, 0)">
                            <path d="M62,31 C62,32.656 60.656,34 59,34 L34,34 L34,59 C34,60.656 32.656,62 31,62 C29.344,62 28,60.656 28,59 L28,34 L3,34 C1.344,34 0,32.656 0,31 C0,29.344 1.344,28 3,28 L28,28 L28,3 C28,1.344 29.344,0 31,0 C32.656,0 34,1.344 34,3 L34,28 L59,28 C60.656,28 62,29.344 62,31 Z" id="Path"></path>
                        </g>
                    </g>
                </g>
            </g>
        </g>
    </g>
</svg>