<?xml version="1.0" encoding="UTF-8"?>
<svg width="18px" height="15px" viewBox="0 0 18 15" version="1.1" xmlns="http://www.w3.org/2000/svg" xmlns:xlink="http://www.w3.org/1999/xlink">
    <title>Group</title>
    <g id="card_B" stroke="none" stroke-width="1" fill="none" fill-rule="evenodd">
        <g id="card_B-0.3---menu" transform="translate(-899, -155)" fill="#2C2C2C" fill-rule="nonzero">
            <g id="Group-4" transform="translate(877, 81)">
                <g id="Group" transform="translate(22, 74)">
                    <path d="M15,0 L3,0 C1,0 0,1 0,3 L0,12 C0,14 1,15 3,15 L15,15 C17,15 18,14 18,12 L18,3 C18,1 17,0 15,0 Z M6.00598,3 C7.192,3 8.156,3.96402 8.156,5.15002 C8.156,6.336 7.191,7.3 6.00598,7.3 C4.82098,7.3 3.85699,6.336 3.85699,5.15002 C3.85699,3.96402 4.81998,3 6.00598,3 Z M9.5,11.5 C9.5,11.776 9.276,12 9,12 L3,12 C2.724,12 2.5,11.776 2.5,11.5 L2.5,11.197 C2.5,9.857 3.48097,8.5 5.35797,8.5 L6.64099,8.5 C8.518,8.5 9.499,9.856 9.499,11.197 L9.499,11.5 L9.5,11.5 Z M14.95,10.25 L11.95,10.25 C11.536,10.25 11.2,9.914 11.2,9.5 C11.2,9.086 11.536,8.75 11.95,8.75 L14.95,8.75 C15.364,8.75 15.7,9.086 15.7,9.5 C15.7,9.914 15.364,10.25 14.95,10.25 Z M15,6.188 L11,6.188 C10.586,6.188 10.25,5.852 10.25,5.43799 C10.25,5.02399 10.586,4.68799 11,4.68799 L15,4.68799 C15.414,4.68799 15.75,5.02399 15.75,5.43799 C15.75,5.852 15.414,6.188 15,6.188 Z" id="Shape"></path>
                </g>
            </g>
        </g>
    </g>
</svg>