<?xml version="1.0" encoding="UTF-8"?>
<svg width="32px" height="32px" viewBox="0 0 32 32" version="1.1" xmlns="http://www.w3.org/2000/svg" xmlns:xlink="http://www.w3.org/1999/xlink">
    <title>close</title>
    <g id="card_B" stroke="none" stroke-width="1" fill="none" fill-rule="evenodd">
        <g id="card_B-0.2---sign-in" transform="translate(-472, -256)" fill="#454545" fill-rule="nonzero">
            <g id="Card" transform="translate(452, 236)">
                <g id="close" transform="translate(20, 20)">
                    <path d="M16,0 C7.168,0 0,7.168 0,16 C0,24.832 7.168,32 16,32 C24.832,32 32,24.832 32,16 C32,7.168 24.832,0 16,0 Z M21.648,19.952 C22.112,20.416 22.112,21.184 21.648,21.648 C21.408,21.888 21.104,22 20.8,22 C20.496,22 20.192,21.888 19.952,21.648 L16,17.696 L12.048,21.648 C11.808,21.888 11.504,22 11.2,22 C10.896,22 10.592,21.888 10.352,21.648 C9.888,21.184 9.888,20.416 10.352,19.952 L14.304,16 L10.352,12.048048 C9.888,11.584048 9.888,10.815952 10.352,10.351952 C10.816,9.887952 11.584,9.887952 12.048,10.351952 L16,14.304 L19.952,10.351952 C20.416,9.887952 21.184,9.887952 21.648,10.351952 C22.112,10.815952 22.112,11.584048 21.648,12.048048 L17.696,16 L21.648,19.952 Z" id="Shape"></path>
                </g>
            </g>
        </g>
    </g>
</svg>