<?xml version="1.0" encoding="UTF-8"?>
<svg width="42px" height="28px" viewBox="0 0 42 28" version="1.1" xmlns="http://www.w3.org/2000/svg" xmlns:xlink="http://www.w3.org/1999/xlink">
    <title>ksa_flag</title>
    <g id="card_B" stroke="none" stroke-width="1" fill="none" fill-rule="evenodd">
        <g id="card_B-1.1---create-step-2" transform="translate(-806, -462)" fill-rule="nonzero">
            <g id="Card" transform="translate(429, 144)">
                <g id="Form" transform="translate(106.2623, 277.5)">
                    <g id="ksa_flag" transform="translate(271, 41)">
                        <path d="M37.9294043,27 L3.0705957,27 C1.37470117,27 0,25.6182389 0,23.9136349 L0,3.0863651 C0,1.3818416 1.37470117,0 3.0705957,0 L37.9294043,0 C39.6252188,0 41,1.38176111 41,3.0863651 L41,23.9137154 C41,25.6182389 39.6252988,27 37.9294043,27 Z" id="Path" fill="#00562C"></path>
                        <g id="Group" transform="translate(8.1059, 5.6843)" fill="#F5F5F5">
                            <path d="M0.377597446,3.49167065 C0.447265414,3.94055989 0.717208774,4.0814163 0.95183768,4.06298423 C1.22858768,4.04141308 1.47130448,3.78706665 1.47130448,3.51839312 L1.47130448,1.97798745 C1.47130448,1.90087863 1.53376541,1.83793594 1.61064041,1.83793594 C1.68751541,1.83793594 1.74997635,1.90079814 1.74997635,1.97798745 L1.74997635,3.52499325 C1.74997635,3.71100419 1.84142557,3.8844588 1.99477518,3.98861205 C2.08838651,4.05235963 2.19737284,4.08511881 2.30715995,4.08511881 C2.37706815,4.08511881 2.44729666,4.07167708 2.51424198,4.04487412 L2.65349784,3.98893401 C2.66631034,5.28199582 2.58807401,6.41842531 2.5866326,6.43927206 C2.57574198,6.59357019 2.69121463,6.727585 2.8447244,6.73853156 C2.85153104,6.73909499 2.85817752,6.73933645 2.86490409,6.73933645 C3.00984549,6.73933645 3.13212479,6.62665133 3.14261502,6.47919479 C3.14910135,6.38816131 3.2349451,5.1435541 3.20915995,3.7654955 L3.29340213,3.73168996 C3.36723416,3.70215036 3.4501951,3.70569189 3.5212244,3.7412682 C3.82816385,3.89500291 4.19748416,3.83503832 4.44004081,3.59131649 L4.49024979,3.54093014 C4.71542948,3.31419157 4.79286502,2.98482905 4.69204666,2.68098166 L4.45477518,1.9655116 C4.58306034,2.00430748 4.72399784,1.94724051 4.78597831,1.8230454 C4.85484549,1.68468417 4.79903104,1.51646137 4.66137674,1.44724051 L4.10411307,1.16713748 C4.00329471,1.1162682 3.88229666,1.13188314 3.79685331,1.20593336 C3.71165018,1.28038603 3.67945877,1.39878591 3.71509354,1.50623922 L4.16345096,2.85829975 C4.1970037,2.9594749 4.17121854,3.06942338 4.09618534,3.14492242 L4.04605643,3.19530876 C3.97342557,3.26831263 3.8627576,3.28610078 3.77026737,3.24014135 C3.5896912,3.14942982 3.38405057,3.13244656 3.19114237,3.18186704 C3.15198416,2.28288121 3.05565018,1.38767837 2.85049002,0.768795565 C2.8018826,0.622143923 2.64436893,0.54262042 2.49790604,0.591799428 C2.35192362,0.6404955 2.27304666,0.79905957 2.32173416,0.946033169 C2.52249002,1.55123278 2.60993534,2.47356054 2.64100565,3.39065648 L2.30740018,3.52475178 L2.30740018,1.97774598 C2.30740018,1.59155796 1.99485526,1.27748842 1.61072049,1.27748842 C1.22658573,1.27748842 0.914040805,1.59155796 0.914040805,1.97774598 L0.914040805,3.33358951 L0.629763461,1.92220831 C0.59949393,1.77040535 0.452630649,1.67140342 0.301443149,1.70311623 C0.150495883,1.73402415 0.0529607269,1.88172216 0.0836306488,2.03328365 L0.377597446,3.49167065 Z" id="Path"></path>
                            <path d="M0.914120883,1.13775886 C1.06795096,1.13775886 1.19271268,1.0124369 1.19271268,0.857655835 L1.19271268,0.577633298 C1.19271268,0.422852229 1.06795096,0.297530272 0.914120883,0.297530272 C0.760210727,0.297530272 0.635449008,0.42277174 0.635449008,0.577633298 L0.635449008,0.857655835 C0.635449008,1.0124369 0.760210727,1.13775886 0.914120883,1.13775886 Z" id="Path"></path>
                            <path d="M3.7005994,0.857655835 L3.97927127,0.857655835 C4.13318143,0.857655835 4.25794315,0.732414367 4.25794315,0.577633298 C4.25794315,0.422852229 4.13318143,0.297530272 3.97927127,0.297530272 L3.7005994,0.297530272 C3.54668924,0.297530272 3.42192752,0.42277174 3.42192752,0.577633298 C3.42192752,0.732414367 3.54668924,0.857655835 3.7005994,0.857655835 Z" id="Path"></path>
                            <path d="M1.88530838,4.53867644 L0.492029086,5.37898552 C0.359980258,5.45858951 0.317298618,5.63059531 0.396495883,5.76332229 C0.448706821,5.85089473 0.540956821,5.89926884 0.635689243,5.89926884 C0.684536899,5.89926884 0.733945102,5.88639054 0.77886893,5.85926562 L2.17214823,5.01895654 C2.30419706,4.93935255 2.3468787,4.76734676 2.26768143,4.63461978 C2.18840409,4.50197329 2.01743729,4.45907245 1.88530838,4.53867644 Z" id="Path"></path>
                            <path d="M5.64201346,5.03408855 L5.64857987,5.02966163 C5.67196268,5.12431714 5.71208182,5.21591405 5.77718534,5.29286189 C5.89041581,5.4268767 6.06018143,5.49424631 6.25204862,5.47830941 C6.52423416,5.45834804 6.70921463,5.33334804 6.83173416,5.17196685 C6.85039237,5.18484515 6.87001151,5.19659659 6.89051151,5.20697972 C7.04113846,5.28328365 7.21530838,5.27748842 7.38115018,5.19104283 C7.80228104,4.9730776 7.89300956,4.46873117 7.88019706,4.20504798 C7.87266971,4.05131327 7.74262284,3.94281359 7.59007401,3.939755 C7.43704471,3.94635513 7.31788846,4.0768284 7.32341385,4.23056311 C7.32349393,4.23410464 7.32974002,4.56644527 7.12762284,4.68983549 C7.09463065,4.64363459 7.05555252,4.53964231 7.04081815,4.45376015 C7.01727518,4.30960368 6.88554666,4.20923343 6.74380838,4.22074341 C6.59934745,4.2321729 6.48771854,4.35419479 6.48723807,4.49996105 C6.48715799,4.54068867 6.47810916,4.90015423 6.20207987,4.93017676 C6.16996854,4.88614907 6.16940799,4.70070155 6.20103885,4.56362815 C6.22770487,4.45118449 6.18286112,4.33383098 6.08828885,4.26823214 C5.99347635,4.20231134 5.8684744,4.20231134 5.77326151,4.26718578 L5.61774979,4.37351224 C5.54391776,2.74923665 5.37375174,0.856528984 5.37166971,0.832301682 C5.3578162,0.678566975 5.22312479,0.563950104 5.0689744,0.578760149 C4.91570487,0.592684811 4.80271463,0.728953324 4.81664823,0.883251457 C4.81905057,0.909169035 5.0158826,3.09904347 5.07650174,4.77137122 C5.06224784,4.78497393 5.04759354,4.79986446 5.03365995,4.81290374 C4.92347245,4.5336861 4.70501932,4.35773632 4.42370487,4.33101385 C4.02667752,4.29575951 3.59649784,4.56733066 3.44226737,4.95520896 C3.30933768,5.28891791 3.39301932,5.61691211 3.65527518,5.7905277 C3.84385916,5.9155277 4.12845682,5.954887 4.48632596,5.82884064 C4.39896073,6.13735641 4.23984549,6.45029911 4.03308377,6.69233066 C3.84786307,6.90924952 3.53860135,7.15949099 3.14285526,7.14830297 C2.91247049,7.13920767 2.73549784,7.06346717 2.60168729,6.91641308 C2.27905252,6.56217934 2.30683963,5.92108146 2.30707987,5.91423987 C2.31508768,5.75994173 2.19761307,5.62842209 2.04418338,5.61989022 C1.88971268,5.60347039 1.75902518,5.72959724 1.7505369,5.88413684 C1.74861502,5.91963265 1.70817557,6.76219544 2.18808377,7.2919765 C2.42431424,7.55316453 2.73814041,7.69297457 3.12091385,7.70802609 C3.13957206,7.70883098 3.15823026,7.70907245 3.17696854,7.70907245 C3.64310331,7.70907245 4.09538456,7.47927528 4.45565604,7.05726949 C4.79454666,6.66061784 5.0246912,6.12182197 5.09371854,5.62166099 C5.09283768,6.57980651 4.51835721,7.66045687 3.75673416,8.13655152 C3.43329862,8.33841887 2.92904666,8.52056633 2.36105252,8.23909499 C1.6608494,7.89170284 1.74429081,7.08729202 1.7479744,7.05445236 C1.76711307,6.90095912 1.65876737,6.76090761 1.50605838,6.74183162 C1.3540701,6.72323858 1.21393338,6.83125532 1.19503495,6.98499003 C1.18878885,7.03505442 1.05489823,8.21583356 2.11449198,8.7412682 C2.38667752,8.87632937 2.67127518,8.94337702 2.95811502,8.94337702 C3.32655448,8.94337702 3.69843729,8.83262364 4.0509412,8.61216324 C4.97824588,8.03280072 5.65130252,6.77410786 5.65130252,5.61932679 C5.65122245,5.43870864 5.64777909,5.24150967 5.64201346,5.03408855 Z M3.96181424,5.32280394 C3.91200565,5.28964231 3.95092362,5.18387927 3.95933182,5.16287155 C4.01802909,5.01517354 4.20156815,4.8874369 4.3481912,4.8874369 C4.35571854,4.8874369 4.36332596,4.88767837 4.37061307,4.88848327 C4.40624784,4.89178333 4.5008201,4.90079814 4.54149979,5.11224373 C4.54582401,5.13470027 4.5495076,5.15763974 4.55239041,5.18114263 C4.24184745,5.36441694 4.03364432,5.37021218 3.96181424,5.32280394 Z" id="Shape"></path>
                            <path d="M1.05481815,7.8988664 C0.922769321,7.82087219 0.752282993,7.8654633 0.67380643,7.99819028 C0.66099393,8.01976144 0.644017368,8.04334482 0.626720493,8.06459402 C0.623677524,8.05751095 0.620714633,8.04986446 0.617671664,8.04157406 C0.501478305,7.72999969 0.584199008,7.25004154 0.625999789,7.09131649 C0.665318149,6.94192821 0.576831821,6.78883742 0.428366977,6.7488342 C0.280062289,6.71052126 0.127513461,6.79753027 0.087634555,6.94691855 C0.0673747894,7.02265905 -0.10391232,7.7026333 0.0958025238,8.2382096 C0.223687289,8.58069189 0.420038852,8.66713748 0.56233768,8.67880844 C0.574990024,8.6798548 0.587482211,8.68041823 0.599894321,8.68041823 C0.899866977,8.68041823 1.09950174,8.37657084 1.15507596,8.28022506 C1.23203104,8.14693465 1.18694706,7.97710207 1.05481815,7.8988664 Z" id="Path"></path>
                            <path d="M6.19703495,2.81821604 C6.25733377,2.81821604 6.31803299,2.79873761 6.36896268,2.75833195 L7.77377323,1.64975178 C7.79315213,1.6344588 7.80556424,1.61441694 7.81973807,1.59558243 C8.02201541,1.47291662 8.15894901,1.25205377 8.15894901,0.997787838 C8.15894901,0.611599815 7.84640409,0.297530272 7.46226932,0.297530272 C7.07813456,0.297530272 6.76558963,0.611519325 6.76558963,0.997787838 C6.76558963,1.21390181 6.86552713,1.4049031 7.01895682,1.53344463 L6.02462674,2.31805506 C5.9036287,2.41351546 5.88256815,2.58962622 5.97754081,2.71108468 C6.03263456,2.78151289 6.1144744,2.81821604 6.19703495,2.81821604 Z M7.46242948,0.857655835 C7.53930448,0.857655835 7.60176541,0.920518037 7.60176541,0.997707348 C7.60176541,1.07489666 7.53930448,1.13775886 7.46242948,1.13775886 C7.38555448,1.13775886 7.32309354,1.07489666 7.32309354,0.997707348 C7.32309354,0.920518037 7.38555448,0.857655835 7.46242948,0.857655835 Z" id="Shape"></path>
                            <path d="M7.13258768,2.55268159 C6.98580448,2.50350258 6.82861112,2.58302609 6.7800037,2.72967773 C6.75021463,2.81934289 6.61544315,3.2814324 6.88858963,3.5556597 C6.99453299,3.66230812 7.13386893,3.71567258 7.30491581,3.71543192 C7.41926737,3.71543192 7.5476326,3.69192821 7.68985135,3.64403703 C7.83583377,3.59534096 7.91471073,3.43677689 7.86602323,3.28980329 C7.81733573,3.14315165 7.65982206,3.06330619 7.51343924,3.11280716 C7.35776737,3.16480329 7.29194315,3.15635191 7.28593729,3.1617447 C7.26952127,3.12021218 7.28033182,2.99513169 7.30891971,2.90570799 C7.35712674,2.7594588 7.27824979,2.60137766 7.13258768,2.55268159 Z" id="Path"></path>
                            <path d="M10.3217791,1.39484193 C10.3479646,1.40248842 10.3741502,1.40602995 10.4000154,1.40602995 C10.5206931,1.40602995 10.6318416,1.32674791 10.6673963,1.20440406 L10.8299549,0.644278501 C10.8730369,0.495775603 10.7881541,0.340189641 10.6405701,0.296886357 C10.4924256,0.25390503 10.338115,0.338740832 10.2949529,0.48724373 L10.1323943,1.04736929 C10.0892322,1.19603317 10.174115,1.35161913 10.3217791,1.39484193 Z" id="Path"></path>
                            <path d="M8.69755448,1.36200226 C8.74183768,1.38800033 8.79028495,1.4003152 8.83793143,1.4003152 C8.93370487,1.4003152 9.02691581,1.35081424 9.07872635,1.2617125 C9.15640213,1.12826112 9.11171854,0.956416299 8.97886893,0.878583073 C8.92281424,0.845743408 8.93042166,0.753019647 8.9325037,0.73466807 C8.94083182,0.66110078 8.9844744,0.571355127 9.06038846,0.547530272 C9.20733182,0.501651328 9.2894119,0.344616556 9.24368729,0.196918552 C9.19772245,0.0489790805 9.04181034,-0.0328786143 8.89462674,0.0125173934 C8.61683573,0.0994459188 8.41431815,0.357977793 8.37868338,0.670920484 C8.3456912,0.962131044 8.46789041,1.22694109 8.69755448,1.36200226 Z" id="Path"></path>
                            <path d="M6.48707791,5.89918835 C6.33316776,5.89918835 6.20840604,6.02451031 6.20840604,6.17929138 C6.20840604,6.31604283 6.30586112,6.4298548 6.4347869,6.45440406 C6.4494412,6.47597522 6.48699784,6.55018642 6.48699784,6.73941694 C6.48699784,6.89419801 6.61175956,7.01951997 6.76566971,7.01951997 C6.91957987,7.01951997 7.04434159,6.8942785 7.04434159,6.73941694 C7.04442166,5.90876659 6.5098201,5.89918835 6.48707791,5.89918835 Z" id="Path"></path>
                            <path d="M11.2145701,4.73941694 C11.2495642,4.74521218 11.2843982,4.74794882 11.3193924,4.74794882 C11.538326,4.74794882 11.7595017,4.63695397 11.9785955,4.41673504 C12.0874217,4.30734998 12.0874217,4.13011237 11.9785955,4.02072731 C11.8697693,3.91134225 11.6934373,3.91134225 11.5846111,4.02072731 C11.4179685,4.18838668 11.328281,4.19192821 11.3052986,4.1866964 C11.2521267,4.17904991 11.2039197,4.10926562 11.1931892,4.09018964 C11.123281,3.95392113 10.9575193,3.8995908 10.8210662,3.96816775 C10.6834119,4.03738861 10.6275174,4.2056114 10.6964646,4.34397264 C10.7136014,4.37866356 10.8745584,4.68387927 11.2145701,4.73941694 Z" id="Path"></path>
                            <path d="M15.9511111,2.77112976 C15.9493494,2.76678333 15.9476678,2.76259788 15.9463064,2.75881488 C15.8968982,2.61337058 15.7390642,2.53424952 15.5946033,2.58375049 C15.4484607,2.63244656 15.3695838,2.79101063 15.4182713,2.93798423 C15.4399724,3.00358307 15.5641736,3.3329456 15.8716736,3.37447811 C15.8921736,3.37721475 15.9126736,3.37858307 15.9329334,3.37858307 C16.1260017,3.37858307 16.3071385,3.25301965 16.4718592,3.00462943 C16.5571424,2.8760879 16.5225486,2.70215036 16.3945037,2.6162682 C16.2662986,2.5306275 16.0932498,2.56507696 16.0081267,2.69402093 C15.9861053,2.72710207 15.9670467,2.75229524 15.9511111,2.77112976 Z" id="Path"></path>
                            <path d="M15.4040174,7.85974856 C15.4040174,6.66536672 15.3518064,5.54487412 15.2792556,4.56306472 C15.6749217,5.25277818 16.0308689,5.94973568 16.2576502,6.55775242 C16.2996912,6.67019608 16.4057947,6.73941694 16.5185447,6.73941694 C16.5510564,6.73941694 16.5841287,6.73362171 16.6164002,6.72162879 C16.7605408,6.66721797 16.8335721,6.50583678 16.7795193,6.36087541 C16.4267752,5.41576916 15.7928767,4.29020574 15.1680271,3.29101063 C15.0157185,1.78223729 14.8451521,0.824574702 14.8421092,0.807510954 C14.8146424,0.655225056 14.6698611,0.552359634 14.5181931,0.582060214 C14.3667654,0.60966807 14.2663474,0.755434328 14.2938142,0.907559248 C14.2960564,0.919713144 14.3838221,1.41303253 14.4887244,2.24328043 C14.2745955,1.92397908 14.0758416,1.63590761 13.9087986,1.39878591 L13.9224119,1.40313233 C14.0691951,1.45231134 14.2262283,1.37278784 14.2749959,1.22621669 C14.3236834,1.07932357 14.2448064,0.920679016 14.098824,0.871982944 L13.2628084,0.591879918 C13.1468553,0.552520613 13.0196111,0.59413362 12.9486619,0.693698977 C12.9296834,0.720260471 12.9167107,0.749397625 12.9079021,0.779581141 C12.7410994,0.655627503 12.5271306,0.554774315 12.3262947,0.639368649 C12.2048162,0.689996466 12.0600349,0.817411147 12.0600349,1.13767837 C12.0600349,1.38357341 12.153326,1.64942982 12.2523025,1.93114263 C12.4163826,2.39830297 12.5191228,2.74183162 12.3453533,2.90570799 C12.2493396,2.99617805 12.153326,3.03038603 12.0597947,3.00664167 C11.8879471,2.96285545 11.7178611,2.73281681 11.6045506,2.3912199 C11.5995857,2.37640986 11.5893357,2.36562428 11.5822889,2.35234354 C11.640906,1.9185058 11.6153611,1.3958078 11.4972459,0.802681592 C11.4672166,0.65087863 11.3207537,0.552118166 11.169326,0.583026086 C11.0183787,0.613370581 10.9206033,0.760827117 10.9507928,0.912630079 C11.1327303,1.82723085 11.078117,2.57344785 10.8048103,2.90852512 C10.6991072,3.0381935 10.566658,3.09831907 10.3880838,3.09831907 C10.3316287,3.09831907 10.2931111,3.08028945 10.2547537,3.0359398 C10.0349392,2.78127142 10.0358201,1.95963587 10.1067693,1.4571407 C10.1180603,1.37705377 10.094117,1.29551804 10.0411853,1.23418513 C9.9882537,1.17293272 9.91153885,1.13767837 9.8308201,1.13767837 C9.35139237,1.13767837 9.16953495,1.68573053 9.00913846,2.16939119 C8.93882987,2.38196363 8.8076619,2.77716646 8.71621268,2.81821604 C8.54756815,2.81821604 8.43850174,2.32038925 8.43754081,1.97766549 C8.43706034,1.82312589 8.31253885,1.69812589 8.15886893,1.69812589 C8.15886893,1.69812589 8.1586287,1.69812589 8.15838846,1.69812589 C8.00463846,1.69812589 7.88011698,1.82344785 7.88011698,1.97798745 C7.88011698,2.62399518 8.09905057,3.37842209 8.7161326,3.37842209 C9.17562088,3.37842209 9.36172245,2.87520252 9.51755448,2.40739827 C9.54462088,2.77933967 9.62822245,3.1647228 9.83362284,3.40272989 C9.9780037,3.57014779 10.1696306,3.65844463 10.3880838,3.65844463 C10.7320994,3.65844463 11.0251053,3.52193465 11.2357107,3.26372473 C11.273908,3.2170409 11.30674,3.16335448 11.3391717,3.10918513 C11.5009295,3.34043111 11.6994431,3.49287799 11.9231014,3.549623 C11.9886853,3.5662843 12.0546697,3.57473568 12.1199334,3.57473568 C12.3350232,3.57473568 12.5452283,3.48555345 12.7267654,3.31403059 C12.7644822,3.27845429 12.7910681,3.23941694 12.8198162,3.20102351 C12.8879627,3.22058243 12.9570701,3.2321729 13.0256971,3.2321729 C13.2514373,3.2321729 13.4687693,3.14081746 13.6036209,3.05380844 C13.7326267,2.97066292 13.7699431,2.79889859 13.6880232,2.66866678 C13.6060232,2.53875693 13.4342556,2.49988056 13.3043689,2.5814163 C13.3019666,2.58254315 13.115865,2.69007696 12.9889412,2.66488378 C12.9892615,2.35781681 12.8787537,2.03175435 12.7778553,1.74448777 C12.7204392,1.58085287 12.6615818,1.41327399 12.6337146,1.27628108 C12.6566971,1.29575951 12.6791189,1.31596234 12.6992185,1.33560175 C12.8078045,1.44498681 12.9842967,1.44498681 13.0931228,1.33560175 C13.1111404,1.31749164 13.1215506,1.29551804 13.1335623,1.27434933 C13.4224041,1.67430104 14.0165037,2.5147711 14.6275799,3.48354122 C14.7442537,4.67438153 14.8465935,6.19345751 14.8465935,7.85958758 C14.8465935,8.01436865 14.9713553,8.13969065 15.1252654,8.13969065 C15.2792556,8.1397711 15.4040174,8.01461012 15.4040174,7.85974856 Z" id="Path"></path>
                            <path d="M15.6826892,1.69788442 C15.6826892,1.85266549 15.807451,1.97798745 15.9613611,1.97798745 C16.1152713,1.97798745 16.240033,1.85266549 16.240033,1.69788442 C16.240033,1.36828043 15.9834627,0.835762725 15.9319724,0.732333878 C15.8631053,0.594214109 15.6959021,0.538434972 15.5580877,0.60709241 C15.4204334,0.676313272 15.3645389,0.844536067 15.4334861,0.982897303 C15.5339842,1.18500612 15.6826892,1.55179621 15.6826892,1.69788442 Z" id="Path"></path>
                            <path d="M14.4147322,7.89041501 C14.2781189,7.82038925 14.1102752,7.87592692 14.0406873,8.01380522 C14.0107381,8.07256247 13.9643728,8.13800033 13.9252146,8.18009627 C13.9128826,8.06877947 13.9423514,7.84638732 13.9985662,7.66206665 C14.0359627,7.5389984 13.9851931,7.40611044 13.8755662,7.33986768 C13.7662596,7.27346395 13.6254822,7.29068867 13.535074,7.38172216 L12.9778103,7.94184772 C12.8689842,8.05123278 12.8689842,8.22847039 12.9778103,8.33785545 C13.0866365,8.44724051 13.2629685,8.44724051 13.3717947,8.33785545 L13.3859685,8.32360883 C13.4100721,8.43605249 13.4561971,8.53859595 13.5351541,8.61795848 C13.639576,8.72299711 13.7658592,8.77853478 13.8971873,8.77853478 C13.9226521,8.77853478 13.9481971,8.77628108 13.9738221,8.77225661 C14.28949,8.7208239 14.4860017,8.37101707 14.5386931,8.26509305 C14.60724,8.1268928 14.5517459,7.95987734 14.4147322,7.89041501 Z" id="Path"></path>
                            <path d="M14.3067869,5.63655152 L12.3428709,5.63655152 C12.3602478,5.56684772 12.3781853,5.50028301 12.3965232,5.43717934 C13.1796873,5.27354444 13.6451814,5.01943948 13.7820349,4.68041823 C13.8293611,4.56282325 13.8787693,4.32513813 13.6772127,4.0518767 C13.4955154,3.8056597 13.2391053,3.69522828 12.9727654,3.74988056 C12.5767791,3.83053092 12.2240349,4.25937831 11.9708279,4.94595268 C11.1841404,5.08133581 10.6806892,5.36514135 10.3618982,5.64532486 C10.2488279,4.49754637 9.80551541,3.81572087 9.7839744,3.78328365 C9.69853104,3.65442016 9.52540213,3.61964875 9.39759745,3.70553092 C9.26955252,3.79141308 9.23503885,3.96510915 9.32024198,4.09389215 C9.3252869,4.10153864 9.83074002,4.87858307 9.83074002,6.17921089 C9.83074002,7.45762364 8.81655057,8.41987412 8.15886893,8.41987412 C7.8460037,8.41987412 7.70899002,8.04608146 7.64885135,7.7299192 C8.29283963,7.27628108 8.86107401,6.75132937 8.98655643,6.24698294 C9.15640213,5.56451353 8.94267362,5.06153542 8.80125565,4.72871186 C8.79460916,4.71341887 8.78764237,4.69699904 8.78059549,4.68001578 C8.78660135,4.68548906 8.7922869,4.69120381 8.79797245,4.69667708 C8.90655838,4.80606215 9.08305057,4.80606215 9.19187674,4.69667708 C9.30070291,4.58729202 9.30070291,4.40997393 9.19187674,4.30066936 C9.02899784,4.13679299 8.71268924,3.87938797 8.4251287,4.00028301 C8.30365018,4.05091083 8.15878885,4.17832551 8.15878885,4.49859273 C8.15878885,4.64331263 8.21892752,4.78465197 8.28859549,4.94876981 C8.41407791,5.24392435 8.57015018,5.61127786 8.44578885,6.11119737 C8.37219706,6.40707631 8.0107244,6.76597844 7.53369901,7.12238539 C7.48252909,7.06089151 7.40869706,7.01960046 7.32285331,7.01960046 L7.32237284,7.01960046 C7.16862284,7.01984193 7.04410135,7.14492242 7.04410135,7.29946202 C7.04410135,7.34984837 7.04634354,7.40369576 7.04954666,7.45899196 C6.45320487,7.84719222 5.77838651,8.20649679 5.2567576,8.44490632 C5.11670096,8.50897586 5.05488065,8.67494495 5.11854276,8.81580136 C5.16522831,8.91890825 5.26644706,8.9799192 5.37231034,8.9799192 C5.41090799,8.9799192 5.45014627,8.97203124 5.48746268,8.95480651 C5.64409549,8.88325146 6.38778104,8.53497393 7.15172635,8.05912074 C7.29242362,8.53923987 7.59055448,8.97999969 8.15870877,8.97999969 C8.82720096,8.97999969 9.58554081,8.43057921 10.0232478,7.61031198 C10.0760994,7.70408211 10.1367986,7.79390825 10.2091892,7.87769769 C10.9105935,8.69064038 12.2805701,8.69989666 12.3385467,8.69989666 C12.4886131,8.69989666 12.6116131,8.5806114 12.6170584,8.42993529 C12.6223435,8.27917869 12.5080721,8.15120059 12.3584861,8.14057599 C12.3562439,8.14033452 12.1341873,8.11570477 12.0107068,7.97066292 C11.9361541,7.88309048 11.906365,7.76283935 11.9194978,7.60282647 C11.9480056,7.25768803 13.0557264,6.99963909 14.0319588,6.9844266 C14.1482322,6.98249486 14.2512928,6.90836414 14.2902908,6.79817419 L14.5689627,6.01050516 C14.5992322,5.92486446 14.5862596,5.82940406 14.5339685,5.75535384 C14.4823982,5.68082068 14.3972752,5.63655152 14.3067869,5.63655152 Z M13.0836736,4.29905957 C13.0889588,4.29801321 13.0960056,4.29632293 13.1048943,4.29632293 C13.1315603,4.29632293 13.1736014,4.3094427 13.229656,4.38550516 C13.2402264,4.39975178 13.2741795,4.44836736 13.2656111,4.46977754 C13.2336599,4.54905957 13.0412322,4.68009627 12.6403611,4.7988181 C12.8166931,4.45303574 12.9891014,4.31821604 13.0836736,4.29905957 Z M11.4008318,7.98088507 C11.1177556,7.88840278 10.8292342,7.74183162 10.6295193,7.50961978 C10.4100252,7.25446846 10.3289861,6.93170606 10.382158,6.52330297 C10.3901658,6.50181231 10.4084236,6.45955538 10.4402947,6.40458114 C10.8326775,6.36844141 11.8809803,6.52394688 11.9536111,6.82562106 C11.6302556,6.99150967 11.3921033,7.22476788 11.3645564,7.5563841 C11.3507029,7.72275564 11.3675994,7.86361205 11.4008318,7.98088507 Z" id="Shape"></path>
                            <path d="M17.3403865,1.60926562 L17.0617146,0.768956543 C17.0167908,0.633895372 16.8772947,0.553164528 16.7390799,0.583750491 C16.6001443,0.613612049 16.5058924,0.743441411 16.5200662,0.88542467 C16.7123338,2.81813555 17.0760486,6.58721153 17.0760486,7.01943948 C17.0760486,7.40755925 16.3892185,8.17172538 15.2794959,8.72951675 C15.1418416,8.79873761 15.0859471,8.96687992 15.1548943,9.10532164 C15.203742,9.20351868 15.3020779,9.26010271 15.4044178,9.26010271 C15.4462185,9.26010271 15.4888201,9.25052448 15.5287791,9.23056311 C16.5424881,8.72106537 17.6333924,7.81185738 17.6333924,7.01943948 C17.6333924,6.60556311 17.3486346,3.62810014 17.1855154,1.95553092 C17.3175642,1.8988664 17.3865916,1.7488342 17.3403865,1.60926562 Z" id="Path"></path>
                            <path d="M19.6654549,4.13663201 C19.7191072,4.19055989 19.7903767,4.21873117 19.8626072,4.21873117 C19.9096931,4.21873117 19.9571795,4.20673826 20.0002615,4.18202802 C20.1092478,4.11964875 20.1633806,3.99167065 20.1325506,3.86940728 C20.0826619,3.67253027 20.0660056,3.42631327 20.0924314,3.32570155 C20.2320076,3.33004798 20.361574,3.23024115 20.382074,3.08552126 C20.4037752,2.93234998 20.297992,2.79036672 20.1456834,2.7685541 C19.9614236,2.74344141 19.7996658,2.79777174 19.6866756,2.92414006 C19.6134842,3.00623922 19.5699217,3.11151933 19.5462986,3.22476788 L19.2235838,2.90039569 C19.1147576,2.79101063 18.9383455,2.79101063 18.8295994,2.90039569 C18.7207732,3.00978075 18.7207732,3.18701836 18.8295994,3.29640342 L19.6654549,4.13663201 Z" id="Path"></path>
                            <path d="M20.2923064,4.42872795 L19.247367,5.18146459 C19.122365,5.27145171 19.0934568,5.44651611 19.1831443,5.572321 C19.2375974,5.64862493 19.3231209,5.68911108 19.4100056,5.68911108 C19.4662205,5.68911108 19.5229158,5.67212782 19.5720838,5.63663201 L20.6170232,4.88389537 C20.7420252,4.79390825 20.7708533,4.61884386 20.6812459,4.49303896 C20.5913982,4.36715358 20.4169881,4.33785545 20.2923064,4.42872795 Z" id="Path"></path>
                            <path d="M20.1997361,5.48201192 C20.1120506,5.59550194 20.1246228,5.75519286 20.2241599,5.85347039 C20.2360916,5.87375371 20.2904646,5.98088507 20.280615,6.25664167 C20.2751697,6.41142274 20.3954471,6.54109112 20.5491971,6.5465644 C20.5525603,6.54680587 20.5560037,6.54680587 20.5592869,6.54680587 C20.7087127,6.54680587 20.8322732,6.42776208 20.8377185,6.2768445 C20.8579783,5.70520896 20.6718767,5.49625854 20.5909178,5.43299389 C20.4695994,5.33761398 20.2942283,5.36007052 20.1997361,5.48201192 Z" id="Path"></path>
                            <path d="M22.6315486,7.54463265 C22.7854588,7.54463265 22.9102205,7.41939119 22.9102205,7.26452963 C22.9102205,6.85129717 22.8890799,6.38993207 22.8545662,5.90997393 C23.1309158,6.36506086 23.3604197,6.78465197 23.5076033,7.12970992 C23.5527674,7.23611688 23.6555877,7.29954251 23.7638533,7.29954251 C23.800449,7.29954251 23.8376853,7.29245944 23.8734803,7.2768445 C24.0148982,7.21583356 24.0804021,7.05115229 24.0197029,6.90924952 C23.764574,6.31081102 23.2877889,5.51815165 22.7447791,4.69981617 C22.6354724,3.67180587 22.4926931,2.66448133 22.3817049,1.94192821 C22.4407224,1.94796491 22.5019822,1.93347683 22.5557146,1.89838346 C22.6437205,1.84171894 22.6849607,1.74328043 22.6790349,1.64532486 C22.6861619,1.67285223 22.6938494,1.70046008 22.709865,1.72581424 C22.7117068,1.72855088 22.8908416,2.02579814 22.8114041,2.41158372 C22.7801736,2.56282325 22.8771482,2.71108468 23.0278553,2.74247554 C23.0469139,2.74625854 23.0659724,2.74827077 23.0845506,2.74827077 C23.2138767,2.74827077 23.3298299,2.6571568 23.3572166,2.52483227 C23.4830193,1.91295204 23.1924158,1.44474534 23.1800838,1.42502544 C23.0973631,1.29479363 22.9250349,1.25656118 22.7952283,1.33914328 C22.7069021,1.39572731 22.6651014,1.49424631 22.6707869,1.59244334 C22.6635799,1.564755 22.6555721,1.53690567 22.6393963,1.51155152 L22.1690974,0.776361566 C22.0972674,0.664159377 21.9566502,0.618763369 21.8333299,0.666976505 C21.7096092,0.715672577 21.6372185,0.845019003 21.660201,0.976297174 C21.6641248,0.998351263 21.8770525,2.22742403 22.0657967,3.70883098 C21.8521482,3.4056275 21.6385799,3.10902415 21.4314178,2.82618449 C21.3977849,2.40240793 21.363992,2.01066614 21.3347635,1.6866964 C21.3501385,1.68210851 21.3652732,1.6760718 21.3800877,1.66866678 C21.517742,1.59944592 21.5736365,1.43122312 21.5047693,1.29286189 L21.2260974,0.732736325 C21.1659588,0.611841283 21.0287049,0.55163523 20.8994588,0.588821321 C20.7703728,0.626570838 20.6862107,0.751248881 20.6995838,0.885827117 C20.7328162,1.22009949 20.7674099,1.59010915 20.8013631,1.97879235 C20.6251111,1.74521218 20.461992,1.53151289 20.3224959,1.35049228 C20.3497224,1.32698938 20.3729451,1.29777174 20.3900818,1.2632418 C20.458949,1.12488056 20.4031346,0.956657767 20.2654803,0.887436904 L19.7082166,0.607333878 C19.5913025,0.548818102 19.4494041,0.579484554 19.3668435,0.68178655 C19.2846834,0.784088546 19.2842029,0.930096273 19.3660428,1.03296169 C19.3810974,1.05179621 20.0672068,1.9162521 20.8879275,3.03199582 C21.0303064,4.88252705 21.1251189,6.80759144 20.9912283,7.21116517 C20.9667244,7.28505442 20.9239627,7.37198294 20.8838435,7.37504154 C20.7154392,7.39854444 20.3134471,7.02008339 20.1115701,6.61441694 C19.9952166,6.38083678 19.8278533,6.35652898 19.738326,6.36055345 C19.4388338,6.3791465 19.3219998,6.71036028 19.1096326,7.31161591 C18.9574041,7.74239505 18.7682596,8.27797135 18.5558924,8.49706343 C18.4408201,8.35572409 18.2920349,7.88164167 18.2093943,7.39435899 C18.2481521,7.50205377 18.3485701,7.57996749 18.4690877,7.57996749 C18.6229978,7.57996749 18.7477596,7.45472602 18.7477596,7.29994495 C18.7477596,6.88220509 18.457156,3.70118449 18.2948377,1.95786511 C18.4304099,1.90313233 18.5015994,1.75084643 18.4548338,1.60966807 L18.1761619,0.76935899 C18.1313982,0.634297818 17.9939041,0.554613337 17.8540877,0.583911469 C17.7154724,0.61345107 17.6209002,0.742797496 17.6343533,0.884539287 C17.8237381,2.88260754 18.1788045,6.74191211 18.1898553,7.2745908 C18.1891346,7.26976144 18.1881736,7.26509305 18.187533,7.26026369 C18.1659119,7.10709241 18.0236931,7.00205377 17.8722654,7.02257857 C17.7198767,7.04471314 17.6141736,7.18645493 17.6358748,7.33954573 C17.7172342,7.91206665 17.9251971,8.89637122 18.4040642,9.05670606 C18.4418611,9.06958436 18.4927908,9.08101385 18.5525291,9.08101385 C18.6623963,9.08101385 18.8019724,9.04189602 18.9446717,8.89830297 C19.2481678,8.59332873 19.4535681,8.01179299 19.6347849,7.49899518 C19.6757849,7.38300999 19.7242322,7.24569511 19.7698767,7.12810014 C20.0254861,7.5033416 20.4716014,7.97050194 20.9234822,7.93395976 C21.0823572,7.92253027 21.3713592,7.83664811 21.5199842,7.38856376 C21.6681287,6.94176723 21.6095916,5.38357341 21.5097342,3.89170284 C21.7445232,4.22243368 21.9794724,4.56113298 22.2037713,4.89556633 C22.2907361,5.73434611 22.3529568,6.57465519 22.3529568,7.26485159 C22.3529568,7.4193107 22.4777185,7.54463265 22.6315486,7.54463265 Z" id="Path"></path>
                            <path d="M24.7462517,6.07143562 C24.5488592,4.59332873 24.2738709,2.88107824 24.099701,1.83020896 C24.1783377,1.84968739 24.2640213,1.83375049 24.3331287,1.78038603 C24.4555681,1.68661591 24.479031,1.51074663 24.3855799,1.38791984 L23.8805271,0.722675153 C23.8026111,0.620373156 23.665117,0.584313916 23.5474822,0.635988095 C23.4297674,0.687662274 23.3625017,0.813547657 23.3844431,0.940720871 C23.3894881,0.969375088 23.8863728,3.84461656 24.1937127,6.1458078 C24.3111072,7.02515423 24.13974,7.81105249 23.7349451,8.24754637 C23.4747713,8.52797135 23.1300349,8.65482261 22.7128279,8.63043433 C22.5596385,8.62222441 22.4267889,8.73812911 22.4171795,8.89242725 C22.4075701,9.04672538 22.5240838,9.17969383 22.6777537,9.18943304 C22.7248396,9.19249164 22.7712049,9.19377947 22.8171697,9.19377947 C23.3426424,9.19377947 23.7986873,9.00020252 24.1425428,8.62922699 C24.6677752,8.0632257 24.8878299,7.13075629 24.7462517,6.07143562 Z" id="Path"></path>
                            <path d="M21.680781,7.9177814 C21.5783611,8.02958114 21.5862088,8.20577238 21.6945545,8.31129395 C21.7096892,8.32602351 21.7277869,8.35508018 21.727867,8.36932679 C21.7279471,8.37721475 21.7167361,8.40079814 21.6857459,8.43194753 C21.5769197,8.54133259 21.5769197,8.71857019 21.6857459,8.82795526 C21.740199,8.88268803 21.8114685,8.91005442 21.8828181,8.91005442 C21.9540877,8.91005442 22.0254373,8.88268803 22.0798904,8.82795526 C22.2566228,8.65039569 22.2890545,8.47017998 22.2850506,8.35008983 C22.2764822,8.09163845 22.1013514,7.92478397 22.0663572,7.89387605 C21.9524861,7.79439119 21.7831209,7.8063841 21.680781,7.9177814 Z" id="Path"></path>
                            <path d="M20.6984627,14.0600866 L20.4197908,14.0600866 L18.7479197,14.0600866 L18.7479197,13.7799836 C18.7479197,13.6252025 18.623158,13.4998806 18.4692478,13.4998806 C18.3153377,13.4998806 18.190576,13.6252025 18.190576,13.7799836 L18.190576,14.0600866 L3.42192752,14.0600866 C3.9791912,14.6202122 5.09379862,14.9003957 5.92981424,14.9003957 C6.52935916,14.9003957 14.0080154,14.9003957 18.190576,14.9003957 L18.190576,15.4605213 C18.190576,15.6153023 18.3153377,15.7406243 18.4692478,15.7406243 L20.6984627,15.7406243 C21.1594724,15.7406243 21.5344783,15.3636925 21.5344783,14.9003152 C21.5344783,14.4370184 21.1594724,14.0600866 20.6984627,14.0600866 Z M20.6984627,15.1804182 L18.7478396,15.1804182 L18.7478396,14.9003152 C20.0907498,14.9003152 20.9770545,14.9003152 20.9770545,14.9003152 L20.9270056,14.7495586 C20.9559939,14.7936668 20.9770545,14.8434897 20.9770545,14.9003152 C20.9770545,15.0549353 20.8520525,15.1804182 20.6984627,15.1804182 Z" id="Shape"></path>
                        </g>
                    </g>
                </g>
            </g>
        </g>
    </g>
</svg>