<?xml version="1.0" encoding="UTF-8"?>
<svg width="16px" height="18px" viewBox="0 0 16 18" version="1.1" xmlns="http://www.w3.org/2000/svg" xmlns:xlink="http://www.w3.org/1999/xlink">
    <title>Group</title>
    <g id="card_B" stroke="none" stroke-width="1" fill="none" fill-rule="evenodd">
        <g id="card_B-0.3---menu" transform="translate(-900, -193)" fill="#2C2C2C" fill-rule="nonzero">
            <g id="Group-4" transform="translate(877, 81)">
                <g id="Group" transform="translate(23, 112)">
                    <path d="M13,0 L3,0 C1,0 0,1 0,3 L0,15 C0,17 1,18 3,18 L13,18 C15,18 16,17 16,15 L16,3 C16,1 15,0 13,0 Z M6.5,2.25 L9.5,2.25 C9.914,2.25 10.25,2.586 10.25,3 C10.25,3.414 9.914,3.75 9.5,3.75 L6.5,3.75 C6.086,3.75 5.75,3.414 5.75,3 C5.75,2.586 6.086,2.25 6.5,2.25 Z M10.155,8.15 C10.155,9.336 9.191,10.3 8.005,10.3 C6.819,10.3 5.85498,9.336 5.85498,8.15 C5.85498,6.96402 6.819,6 8.005,6 C9.191,6 10.155,6.96402 10.155,8.15 Z M11.499,14.5 C11.499,14.776 11.275,15 10.999,15 L4.99902,15 C4.72302,15 4.49902,14.776 4.49902,14.5 L4.49902,14.197 C4.49902,12.857 5.47999,11.5 7.357,11.5 L8.641,11.5 C10.517,11.5 11.499,12.856 11.499,14.197 L11.499,14.5 Z" id="Shape"></path>
                </g>
            </g>
        </g>
    </g>
</svg>