<?xml version="1.0" encoding="UTF-8"?>
<svg width="24px" height="26px" viewBox="0 0 24 26" version="1.1" xmlns="http://www.w3.org/2000/svg" xmlns:xlink="http://www.w3.org/1999/xlink">
    <title>Group</title>
    <g id="card_B" stroke="none" stroke-width="1" fill="none" fill-rule="evenodd">
        <g id="card_B-0.3---menu" transform="translate(-417, -518)" fill="#25314C" fill-rule="nonzero">
            <g id="Group-3" transform="translate(172, 216)">
                <g id="print" transform="translate(233, 290)">
                    <g id="Group" transform="translate(12, 12)">
                        <path d="M20,6.33333333 L19.6666667,6.33333333 L19.6666667,3.66666667 C19.6666667,3.40133333 19.5613333,3.14662667 19.3733333,2.95996 L16.7066667,0.293293333 C16.5186667,0.105293333 16.2653333,0 16,0 L6.66666667,0 C5.38,0 4.33333333,1.04666667 4.33333333,2.33333333 L4.33333333,6.33333333 L4,6.33333333 C1.33333333,6.33333333 0,7.66666667 0,10.3333333 L0,17.6666667 C0,18.7733333 0.893333333,19.6666667 2,19.6666667 L4.33333333,19.6666667 L4.33333333,23.6666667 C4.33333333,24.9466667 5.38666667,26 6.66666667,26 L17.3333333,26 C18.6133333,26 19.6666667,24.9466667 19.6666667,23.6666667 L19.6666667,19.6666667 L22,19.6666667 C23.1066667,19.6666667 24,18.7733333 24,17.6666667 L24,10.3333333 C24,7.66666667 22.6666667,6.33333333 20,6.33333333 Z M6.33333333,2.33333333 C6.33333333,2.14933333 6.48266667,2 6.66666667,2 L15.5853333,2 L17.6666667,4.08138667 L17.6666667,6.33333333 L6.33333333,6.33333333 L6.33333333,2.33333333 Z M17.6666667,23.6666667 C17.6666667,23.8533333 17.52,24 17.3333333,24 L6.66666667,24 C6.48,24 6.33333333,23.8533333 6.33333333,23.6666667 L6.33333333,19.6666667 L6.33333333,18 L17.6666667,18 L17.6666667,19.6666667 L17.6666667,23.6666667 Z M18.6666667,13 C17.9306667,13 17.3333333,12.4026667 17.3333333,11.6666667 C17.3333333,10.9306667 17.9306667,10.3333333 18.6666667,10.3333333 C19.4026667,10.3333333 20,10.9306667 20,11.6666667 C20,12.4026667 19.4026667,13 18.6666667,13 Z" id="Shape"></path>
                    </g>
                </g>
            </g>
        </g>
    </g>
</svg>