<?xml version="1.0" encoding="UTF-8"?>
<svg width="24px" height="24px" viewBox="0 0 24 24" version="1.1" xmlns="http://www.w3.org/2000/svg" xmlns:xlink="http://www.w3.org/1999/xlink">
    <title>Path</title>
    <g id="Symbols" stroke="none" stroke-width="1" fill="none" fill-rule="evenodd">
        <g id="card" transform="translate(-470, -224)" fill="#25314C" fill-rule="nonzero">
            <path d="M490,240.004449 C488.577333,240.004449 487.334667,240.753866 486.626667,241.872656 L477.727867,237.422831 C477.8972,236.980115 478,236.505396 478,236.002674 C478,235.501285 477.8972,235.025232 477.727867,234.582517 L486.626667,230.132665 C487.336,231.252802 488.577333,232.000885 490,232.000885 C492.209333,232.000885 494,230.21002 494,228.000442 C494,225.790865 492.209333,224 490,224 C487.790667,224 486,225.790865 486,228.000442 C486,228.06845 486.0172,228.13247 486.019867,228.199144 L476.543947,232.937015 C475.850613,232.360951 474.972,231.999578 474,231.999578 C471.790667,231.999578 470,233.790429 470,236 C470,238.209584 471.790667,240.000449 474,240.000449 C474.972,240.000449 475.850613,239.640409 476.543947,239.063012 L486.019867,243.800869 C486.0172,243.867543 486,243.93155 486,243.999558 C486,246.209135 487.790667,248 490,248 C492.209333,248 494,246.209135 494,243.999558 C494,241.78998 492.209333,240.004449 490,240.004449 Z" id="Path"></path>
        </g>
    </g>
</svg>