<?xml version="1.0" encoding="UTF-8"?>
<svg width="19px" height="18px" viewBox="0 0 19 18" version="1.1" xmlns="http://www.w3.org/2000/svg" xmlns:xlink="http://www.w3.org/1999/xlink">
    <title>Group</title>
    <g id="card_B" stroke="none" stroke-width="1" fill="none" fill-rule="evenodd">
        <g id="card_B-0.3---menu" transform="translate(-898, -233)" fill="#2C2C2C" fill-rule="nonzero">
            <g id="Group-4" transform="translate(877, 81)">
                <g id="Group" transform="translate(21, 152)">
                    <path d="M18.75,3 L18.75,15 C18.75,17 17.75,18 15.75,18 L9.75,18 C7.75,18 6.75,17 6.75,15 L6.75,14 L6.75,9.75 L11.939,9.75 L10.219,11.47 C9.926,11.763 9.926,12.238 10.219,12.531 C10.365,12.677 10.557,12.751 10.749,12.751 C10.941,12.751 11.133,12.678 11.279,12.531 L14.279,9.531 C14.348,9.462 14.403,9.379 14.441,9.287 C14.517,9.104 14.517,8.897 14.441,8.714 C14.403,8.622 14.348,8.539 14.279,8.47 L11.279,5.47 C10.986,5.177 10.511,5.177 10.218,5.47 C9.925,5.763 9.925,6.23801 10.218,6.53101 L11.938,8.251 L6.75,8.251 L6.75,4 L6.75,3 C6.75,1 7.75,0 9.75,0 L15.75,0 C17.75,0 18.75,1 18.75,3 Z M0.75,8.25 C0.336,8.25 0,8.586 0,9 C0,9.414 0.336,9.75 0.75,9.75 L6.75,9.75 L6.75,8.25 L0.75,8.25 Z" id="Shape"></path>
                </g>
            </g>
        </g>
    </g>
</svg>