<?xml version="1.0" encoding="UTF-8"?>
<svg width="22px" height="22px" viewBox="0 0 22 22" version="1.1" xmlns="http://www.w3.org/2000/svg" xmlns:xlink="http://www.w3.org/1999/xlink">
    <title>social_inst</title>
    <g id="Symbols" stroke="none" stroke-width="1" fill="none" fill-rule="evenodd">
        <g id="header+sign" transform="translate(-1202, -40)" fill="#000000" fill-rule="nonzero">
            <g id="Group-3" transform="translate(1113, 39)">
                <g id="social_inst" transform="translate(89, 1)">
                    <path d="M12.9335938,11 C12.9335938,12.0678406 12.0678406,12.9335938 11,12.9335938 C9.93215945,12.9335938 9.06640625,12.0678406 9.06640625,11 C9.06640625,9.93215945 9.93215945,9.06640625 11,9.06640625 C12.0678406,9.06640625 12.9335938,9.93215945 12.9335938,11 Z" id="Path"></path>
                    <path d="M14.265625,5.15625 L7.734375,5.15625 C6.3127136,5.15625 5.15625,6.3127136 5.15625,7.734375 L5.15625,14.265625 C5.15625,15.6872864 6.3127136,16.84375 7.734375,16.84375 L14.265625,16.84375 C15.6872864,16.84375 16.84375,15.6872864 16.84375,14.265625 L16.84375,7.734375 C16.84375,6.3127136 15.6872864,5.15625 14.265625,5.15625 Z M11,14.2226562 C9.22300719,14.2226562 7.77734375,12.7769928 7.77734375,11 C7.77734375,9.22300719 9.22300719,7.77734375 11,7.77734375 C12.7769928,7.77734375 14.2226562,9.22300719 14.2226562,11 C14.2226562,12.7769928 12.7769928,14.2226562 11,14.2226562 Z M14.6953125,7.94921875 C14.3393097,7.94921875 14.0507812,7.6606903 14.0507812,7.3046875 C14.0507812,6.9486847 14.3393097,6.66015625 14.6953125,6.66015625 C15.0513153,6.66015625 15.3398438,6.9486847 15.3398438,7.3046875 C15.3398438,7.6606903 15.0513153,7.94921875 14.6953125,7.94921875 Z" id="Shape"></path>
                    <path d="M16.1992188,0 L5.80078125,0 C2.60229492,0 0,2.60229492 0,5.80078125 L0,16.1992188 C0,19.3977051 2.60229492,22 5.80078125,22 L16.1992188,22 C19.3977051,22 22,19.3977051 22,16.1992188 L22,5.80078125 C22,2.60229492 19.3977051,0 16.1992188,0 Z M18.1328125,14.265625 C18.1328125,16.3979492 16.3979492,18.1328125 14.265625,18.1328125 L7.734375,18.1328125 C5.60205078,18.1328125 3.8671875,16.3979492 3.8671875,14.265625 L3.8671875,7.734375 C3.8671875,5.60205078 5.60205078,3.8671875 7.734375,3.8671875 L14.265625,3.8671875 C16.3979492,3.8671875 18.1328125,5.60205078 18.1328125,7.734375 L18.1328125,14.265625 Z" id="Shape"></path>
                </g>
            </g>
        </g>
    </g>
</svg>