<?xml version="1.0" encoding="UTF-8"?>
<svg width="22px" height="22px" viewBox="0 0 22 22" version="1.1" xmlns="http://www.w3.org/2000/svg" xmlns:xlink="http://www.w3.org/1999/xlink">
    <title>social_snapchat</title>
    <g id="Symbols" stroke="none" stroke-width="1" fill="none" fill-rule="evenodd">
        <g id="header+sign" transform="translate(-1246, -39)" fill="#000000" fill-rule="nonzero">
            <g id="Group-3" transform="translate(1113, 39)">
                <g id="social_snapchat" transform="translate(133, 0)">
                    <path d="M21.3517635,15.4691284 L18.1643589,12.1218435 L19.4050801,11.5997148 C19.932118,11.3778698 20.3425026,10.9607807 20.5608709,10.4253515 C20.7792392,9.88992236 20.7792392,9.30009767 20.5608709,8.7646685 C20.2290384,7.95078208 19.4542591,7.42490197 18.5871642,7.42490197 C18.306357,7.42490197 18.0314245,7.48066164 17.7704232,7.59047573 L17.6870036,7.62577314 L17.6870036,6.79347069 C17.6870036,3.04751275 14.6872514,0 11,0 C7.31274864,0 4.31299644,3.04751275 4.31299644,6.79347069 L4.31299644,7.62560264 L4.22974459,7.59064628 C3.96857548,7.48066164 3.69364297,7.42490197 3.41283579,7.42490197 C2.54557308,7.42490197 1.77079376,7.95095259 1.43912912,8.7646685 C1.22076083,9.30009767 1.22076083,9.88992236 1.43896124,10.4253515 C1.6573295,10.9607807 2.06788199,11.3778698 2.59475209,11.5997148 L3.83547323,12.1218435 L0.648236532,15.4691284 C-0.118821879,16.2744888 -0.0422838868,16.9304748 0.0715160017,17.2500271 C0.241712349,17.7273094 0.691037351,18.0395294 1.30434839,18.1063728 C1.55125052,18.1333148 1.77264003,18.2562588 1.92806589,18.452526 C2.07812062,18.6423135 2.14676986,18.8772884 2.12092148,19.1144802 C2.05445428,19.7281775 2.26174468,20.1077524 2.44738286,20.3181727 C2.69092811,20.5944132 3.04709831,20.7466865 3.45026556,20.7466865 C3.79216882,20.7466865 4.15908124,20.641988 4.5407641,20.4358307 L4.75997162,20.3173201 C5.07350883,20.1479949 5.50084593,20.054721 5.96309515,20.054721 C6.49818971,20.054721 7.00575745,20.1797114 7.35605301,20.3976344 L9.07379385,21.4669581 C9.58522207,21.7853168 10.2614755,21.9744222 10.9778443,21.9994885 C10.9852295,22 10.9926148,22 11,22 C11.0073852,22 11.0149383,22 11.0223236,21.9994885 C11.7385245,21.9744222 12.4146101,21.7853168 12.9262061,21.4669581 L14.6437791,20.3976344 C14.9940747,20.1797114 15.5018103,20.054721 16.036737,20.054721 C16.4993219,20.054721 16.9264912,20.1479949 17.2398605,20.3173201 L17.4592359,20.4358307 C17.8409188,20.641988 18.2078312,20.746516 18.5495666,20.7466865 L18.5497344,20.7466865 C18.9529017,20.7466865 19.3090719,20.5944132 19.552785,20.3181727 C19.7382553,20.1077524 19.9455457,19.7281775 19.8790785,19.1143097 C19.853398,18.8772884 19.9218794,18.6423135 20.0721019,18.452526 C20.2271921,18.2562588 20.4487495,18.1333148 20.6958195,18.1063728 C21.3091305,18.0395294 21.7584555,17.7273094 21.928484,17.2500271 C22.0422839,16.9304748 22.1188219,16.2744888 21.3517635,15.4691284 Z" id="Path"></path>
                </g>
            </g>
        </g>
    </g>
</svg>