<?xml version="1.0" encoding="UTF-8"?>
<svg width="19px" height="18px" viewBox="0 0 19 18" version="1.1" xmlns="http://www.w3.org/2000/svg" xmlns:xlink="http://www.w3.org/1999/xlink">
    <title>Group</title>
    <g id="Symbols" stroke="none" stroke-width="1" fill="none" fill-rule="evenodd">
        <g id="card" transform="translate(-476, -181)" fill="#888888" fill-rule="nonzero">
            <g id="Group-2" transform="translate(444, 179)">
                <g id="Group" transform="translate(32.3012, 2.4172)">
                    <path d="M9.96064759,0.59625 L11.9026576,4.513244 C12.0486576,4.808244 12.3306576,5.012264 12.6576576,5.059264 L17.1405576,5.707214 C17.9625576,5.826214 18.2906576,6.834224 17.6956576,7.412224 L14.4546576,10.557244 C14.2176576,10.787244 14.1096576,11.118244 14.1656576,11.443244 L14.9065576,15.747244 C15.0565576,16.620244 14.1395576,17.286244 13.3535576,16.875244 L9.46565759,14.840244 C9.17365759,14.687244 8.82562759,14.687244 8.53462759,14.840244 L4.64961759,16.873244 C3.86261759,17.285244 2.94258759,16.618244 3.09358759,15.743244 L3.83467759,11.443244 C3.89067759,11.118244 3.78261759,10.787244 3.54561759,10.557244 L0.304645593,7.412224 C-0.291354407,6.834224 0.0365776934,5.826214 0.859577593,5.707214 L5.34260759,5.059264 C5.66860759,5.012264 5.95061759,4.808244 6.09761759,4.513244 L8.03962759,0.59625 C8.43062759,-0.19875 9.56664759,-0.19875 9.96064759,0.59625 Z" id="Path"></path>
                </g>
            </g>
        </g>
    </g>
</svg>