<?xml version="1.0" encoding="UTF-8"?>
<svg width="26px" height="27px" viewBox="0 0 26 27" version="1.1" xmlns="http://www.w3.org/2000/svg" xmlns:xlink="http://www.w3.org/1999/xlink">
    <title>Shape</title>
    <g id="card_B" stroke="none" stroke-width="1" fill="none" fill-rule="evenodd">
        <g id="card_B-0.3---menu" transform="translate(-358, -517)" fill="#25314C" fill-rule="nonzero">
            <g id="Group-3" transform="translate(172, 216)">
                <g id="prev" transform="translate(175, 290)">
                    <g id="Group" transform="translate(11, 11)">
                        <path d="M26,4.5 C26,5.121 25.5008,5.625 24.8857143,5.625 L1.11428571,5.625 C0.4992,5.625 0,5.121 0,4.5 C0,3.879 0.4992,3.375 1.11428571,3.375 L7.37508571,3.375 C7.51325714,3.102 7.62021371,2.793 7.73461371,2.448 L8.03474286,1.537485 C8.33782857,0.619485 9.189128,0 10.1489143,0 L15.8510857,0 C16.8108571,0 17.6621714,0.619485 17.9652571,1.537485 L18.2653714,2.448 C18.3797714,2.793 18.4867429,3.102 18.6249143,3.375 L24.8857143,3.375 C25.5008,3.375 26,3.879 26,4.5 Z M22.7462857,7.125 C23.0033143,7.125 23.2083429,7.345515 23.1905143,7.605015 L22.1965714,22.8 C22.0331429,25.17 20.8,27 17.7394286,27 L8.26057143,27 C5.2,27 3.96685714,25.17 3.80342857,22.8 L2.80948571,7.605015 C2.79314286,7.345515 2.99668571,7.125 3.25371429,7.125 L22.7462857,7.125 Z M11.1428571,12 C11.1428571,11.385 10.6377143,10.875 10.0285714,10.875 C9.41942857,10.875 8.91428571,11.385 8.91428571,12 L8.91428571,19.5 C8.91428571,20.115 9.41942857,20.625 10.0285714,20.625 C10.6377143,20.625 11.1428571,20.115 11.1428571,19.5 L11.1428571,12 Z M17.0857143,12 C17.0857143,11.385 16.5805714,10.875 15.9714286,10.875 C15.3622857,10.875 14.8571429,11.385 14.8571429,12 L14.8571429,19.5 C14.8571429,20.115 15.3622857,20.625 15.9714286,20.625 C16.5805714,20.625 17.0857143,20.115 17.0857143,19.5 L17.0857143,12 Z" id="Shape"></path>
                    </g>
                </g>
            </g>
        </g>
    </g>
</svg>