<?xml version="1.0" encoding="UTF-8"?>
<svg width="73px" height="63px" viewBox="0 0 73 63" version="1.1" xmlns="http://www.w3.org/2000/svg" xmlns:xlink="http://www.w3.org/1999/xlink">
    <title>type_company</title>
    <g id="card_B" stroke="none" stroke-width="1" fill="none" fill-rule="evenodd">
        <g id="card_B-1.0---create-step-1" transform="translate(-553, -403)" fill="#202020" fill-rule="nonzero">
            <g id="Card-2" transform="translate(427, 144)">
                <g id="Group-5" transform="translate(53, 213)">
                    <g id="type_company" transform="translate(73.4462, 46.6098)">
                        <path d="M69.8100775,57.1746341 L68.127907,57.1746341 L68.127907,26.5157724 C68.127907,22.478746 66.2371473,20.2776718 62.4825426,19.9329667 C61.903876,19.8799352 61.3992248,20.3678254 61.3992248,20.941229 L61.3992248,57.1746341 L56.3527132,57.1746341 L56.3527132,9.94341463 C56.3527132,3.31447154 52.9883721,0 46.2596899,0 L26.0736434,0 C19.3449612,0 15.9806202,3.31447154 15.9806202,9.94341463 L15.9806202,57.1746341 L10.9341085,57.1746341 L10.9341085,20.941229 C10.9341085,20.3678254 10.4293901,19.8799352 9.85072341,19.9329667 C6.09611876,20.2776718 4.20542636,22.478746 4.20542636,26.5157724 L4.20542636,57.1746341 L2.52325581,57.1746341 C1.14387597,57.1746341 0,58.3015545 0,59.6604878 C0,61.0194211 1.14387597,62.1463415 2.52325581,62.1463415 L69.8100775,62.1463415 C71.1894574,62.1463415 72.3333333,61.0194211 72.3333333,59.6604878 C72.3333333,58.3015545 71.1894574,57.1746341 69.8100775,57.1746341 Z M27.755814,10.7720325 L31.120155,10.7720325 C32.5129922,10.7720325 33.6434109,11.885695 33.6434109,13.2578862 C33.6434109,14.6300774 32.5129922,15.7437398 31.120155,15.7437398 L27.755814,15.7437398 C26.3629767,15.7437398 25.2325581,14.6300774 25.2325581,13.2578862 C25.2325581,11.885695 26.3629767,10.7720325 27.755814,10.7720325 Z M27.755814,20.7154472 L31.120155,20.7154472 C32.5129922,20.7154472 33.6434109,21.8291096 33.6434109,23.2013008 C33.6434109,24.573492 32.5129922,25.6871545 31.120155,25.6871545 L27.755814,25.6871545 C26.3629767,25.6871545 25.2325581,24.573492 25.2325581,23.2013008 C25.2325581,21.8291096 26.3629767,20.7154472 27.755814,20.7154472 Z M25.2325581,33.1447154 C25.2325581,31.7725242 26.3629767,30.6588618 27.755814,30.6588618 L31.120155,30.6588618 C32.5129922,30.6588618 33.6434109,31.7725242 33.6434109,33.1447154 C33.6434109,34.5169067 32.5129922,35.6305691 31.120155,35.6305691 L27.755814,35.6305691 C26.3629767,35.6305691 25.2325581,34.5169067 25.2325581,33.1447154 Z M42.8953488,57.1746341 L29.4379845,57.1746341 L29.4379845,49.7170732 C29.4379845,46.0578966 32.4524341,43.0881301 36.1666667,43.0881301 C39.8842636,43.0881301 42.8953488,46.0578966 42.8953488,49.7170732 L42.8953488,57.1746341 Z M44.5775194,35.6305691 L41.2131783,35.6305691 C39.8203411,35.6305691 38.6899225,34.5169067 38.6899225,33.1447154 C38.6899225,31.7725242 39.8203411,30.6588618 41.2131783,30.6588618 L44.5775194,30.6588618 C45.9703566,30.6588618 47.1007752,31.7725242 47.1007752,33.1447154 C47.1007752,34.5169067 45.9703566,35.6305691 44.5775194,35.6305691 Z M44.5775194,25.6871545 L41.2131783,25.6871545 C39.8203411,25.6871545 38.6899225,24.573492 38.6899225,23.2013008 C38.6899225,21.8291096 39.8203411,20.7154472 41.2131783,20.7154472 L44.5775194,20.7154472 C45.9703566,20.7154472 47.1007752,21.8291096 47.1007752,23.2013008 C47.1007752,24.573492 45.9703566,25.6871545 44.5775194,25.6871545 Z M44.5775194,15.7437398 L41.2131783,15.7437398 C39.8203411,15.7437398 38.6899225,14.6300774 38.6899225,13.2578862 C38.6899225,11.885695 39.8203411,10.7720325 41.2131783,10.7720325 L44.5775194,10.7720325 C45.9703566,10.7720325 47.1007752,11.885695 47.1007752,13.2578862 C47.1007752,14.6300774 45.9703566,15.7437398 44.5775194,15.7437398 Z" id="Shape"></path>
                    </g>
                </g>
            </g>
        </g>
    </g>
</svg>